<svg xmlns="http://www.w3.org/2000/svg" width="180.43" height="80.523"><path style="fill:#F88500;stroke-width:.32" d="M284.62 143.001a11.031 11.031 0 0 1-8.331-10.552c-.033-2.594.452-4.304 1.78-6.281 3.861-5.744 12.065-6.55 16.947-1.664 2.309 2.31 2.962 4.024 2.966 7.785.003 2.886-.085 3.367-.888 4.891-1.857 3.526-5.27 5.768-9.132 5.998-1.175.07-2.679-.009-3.341-.177zm4.528-7.873c1.677-1.175 1.954-3.89.533-5.224-2.474-2.324-6.215-.583-5.812 2.705.306 2.498 3.282 3.917 5.28 2.519zm70.72 7.78c-3.314-.938-6.222-3.66-7.47-6.993-.79-2.111-.594-6.28.392-8.29 1.165-2.375 2.793-4.015 5.122-5.162 1.912-.942 2.428-1.054 4.87-1.054s2.96.112 4.871 1.052c3.931 1.934 6.08 5.413 6.069 9.828-.011 4.606-2.397 8.247-6.632 10.12-1.832.81-5.281 1.05-7.223.5zm5.232-8.192c.898-.802 1.046-1.145 1.046-2.427 0-1.28-.148-1.624-1.046-2.426-.782-.699-1.363-.934-2.314-.934-.951 0-1.533.235-2.315.934-.898.802-1.045 1.145-1.045 2.426 0 1.282.147 1.625 1.045 2.427.782.699 1.364.933 2.315.933.95 0 1.532-.234 2.314-.933zm-110.794-10.742v-5.605h-1.136c-2.555 0-3.67-3.243-1.77-5.144l.936-.936h10.12c11.117 0 11.562-.068 12.315-1.883.486-1.176.196-2.653-.677-3.443-.613-.555-1.63-.604-15.815-.754l-15.16-.16-.88-.88c-1.227-1.228-1.227-3.092 0-4.32l.88-.88 25.781-.16 25.781-.16.772-.897c1.021-1.188 1.021-2.778 0-3.965l-.772-.898-39.539-.16-39.539-.16-.673-.673c-.37-.37-.749-1.24-.842-1.935-.14-1.047-.023-1.437.69-2.284l.86-1.021 47.166-.083 47.167-.084.88-.88c1.228-1.228 1.228-3.091 0-4.32l-.88-.88-37.513-.16c-20.632-.088-37.707-.285-37.945-.439-.848-.546-1.388-2.409-1.02-3.52.733-2.222-.557-2.12 26.847-2.12 17.046 0 24.89-.108 25.418-.348 1.939-.883 2.31-3.774.652-5.079-.81-.638-1.205-.654-16.478-.654-16.664 0-17.362-.06-18.16-1.551-.602-1.123-.41-2.818.426-3.79l.772-.899 41.788-.083 41.788-.084v56.967h3.84V76.77h27.793l.649.825c.571.726 5.843 6.263 17.804 18.695 1.947 2.024 4.504 4.688 5.683 5.92l2.143 2.24.004 12.56.004 12.56h-17.12l-.548-1.865c-.769-2.616-2.806-5.515-5.071-7.218-5.989-4.501-14.034-3.939-19.324 1.352-1.845 1.845-3.523 4.715-3.885 6.647l-.204 1.084h-46.578l-.203-1.084c-.638-3.402-4.367-7.89-7.973-9.596-8.165-3.863-17.935.532-20.542 9.24l-.383 1.28-9.165.085-9.164.085zm122.51-30.485c-5.86-6.116-10.801-11.225-10.982-11.355-.18-.129-4.54-.237-9.688-.24l-9.36-.005v22.72h40.682z" transform="translate(-214.036 -62.682)"/></svg>