<svg width="834.989" height="535.278" xmlns="http://www.w3.org/2000/svg"><path style="fill:#F88500" d="M181.586 651.113c.36-2.888 1.276-7.709 2.035-10.712.758-3.003 1.379-6.914 1.379-8.69 0-1.778.45-3.51 1-3.85.55-.34 1-2.766 1-5.392 0-2.626.337-5.108.75-5.515.678-.668 2.411-9.554 3.92-20.093.315-2.2.89-4.225 1.278-4.5.388-.275 1.245-4.1 1.904-8.5.659-4.4 1.44-9.575 1.735-11.5.295-1.925.919-4.4 1.385-5.5.802-1.89 2.677-11.796 3.691-19.5.254-1.925.847-4.4 1.32-5.5.471-1.1 1.131-3.575 1.466-5.5 2.11-12.148 3.143-16.925 3.802-17.584.412-.412.745-1.687.74-2.832-.011-2.992 3.368-16.021 4.259-16.417.412-.183.75-1.421.75-2.75 0-1.33.401-2.417.892-2.417.49 0 1.173-1.125 1.519-2.5.345-1.375 1.068-2.5 1.608-2.5s.981-.47.981-1.043c0-.95 5.687-7.671 8.76-10.356.694-.605 3.004-2.788 5.133-4.85 2.13-2.063 4.17-3.75 4.533-3.75.364 0 1.875-1.126 3.357-2.5 1.483-1.376 3.226-2.5 3.873-2.5.648 0 1.327-.385 1.51-.855.38-.972 14.302-9.63 20.334-12.646 2.2-1.1 4.225-2.225 4.5-2.5.559-.559 7.088-3.731 20.5-9.96 4.95-2.3 9.781-4.599 10.736-5.11.955-.511 2.418-.93 3.25-.93.833 0 1.514-.45 1.514-1s.575-1 1.278-1c1.38 0 9.493-4.08 16.722-8.408 2.475-1.482 5.737-3.22 7.25-3.863 1.512-.642 2.75-1.519 2.75-1.948 0-.43.684-.78 1.52-.78s3.302-1.126 5.48-2.5c2.178-1.376 4.623-2.5 5.433-2.5 1.877 0 3.554-5.94 3.561-12.611l.01-5.111 9-1.333 9-1.334v-5.757c0-7.874-1.803-15.855-3.582-15.855-.78 0-1.418-.45-1.418-1s-.454-1-1.008-1c-1.567 0-6.992-5.171-6.992-6.665 0-.734-.34-1.335-.755-1.335-1.286 0-6.245-12.358-6.245-15.563 0-1.275-.45-2.597-1-2.937-.55-.34-1-3.254-1-6.477 0-7.043-.648-9.023-2.953-9.023-2.868 0-7.872-2.943-9.88-5.81-2.31-3.3-3.06-6.332-4.195-16.965-.487-4.55-1.215-8.81-1.619-9.463-.753-1.218-2.055-7.278-3.03-14.098-.319-2.227-.082-4.304.564-4.95.612-.613 1.113-1.832 1.113-2.71 0-.88 1.8-3.356 4-5.504 4.503-4.397 4.534-4.502 2.595-8.849-.773-1.733-2.17-5.4-3.106-8.15-.935-2.75-2.082-5.9-2.548-7-2.692-6.349-3.08-10.825-2.56-29.5.588-21.09 1.372-30.927 2.592-32.5.426-.55 1.083-3.128 1.46-5.727.375-2.6 1.107-4.99 1.625-5.31.518-.32.942-1.68.942-3.023 0-1.342.402-2.44.892-2.44s1.173-1.124 1.518-2.496c.344-1.372 2.756-4.659 5.358-7.304 4.679-4.754 10.323-7.2 16.61-7.2 2.078 0 2.35-.467 2.35-4.041 0-2.857.683-4.768 2.334-6.525 2.892-3.079 10.547-7.435 13.064-7.435 1.031 0 1.874-.345 1.874-.766 0-.672 8.315-2.803 19-4.868 5.379-1.04 32.76-.749 39.5.42 7.735 1.34 15.465 3.116 18 4.134 1.1.442 3.703 1.54 5.784 2.442 2.081.9 4.444 1.638 5.25 1.638.807 0 1.466.398 1.466.884 0 .485.788 1.147 1.75 1.47 3.215 1.08 12.338 7.736 17.401 12.697 4.702 4.607 10.641 15.274 12.499 22.45.284 1.1.888 2.9 1.34 4 2.15 5.223 3.51 24.59 3.51 50 0 14.85-.225 29.228-.5 31.952-.482 4.783-.396 4.99 2.5 5.984 4.327 1.487 7.347 5.357 8.1 10.382.723 4.817-.158 15.946-1.539 19.45-.483 1.227-1.653 4.931-2.599 8.231-.945 3.3-2.11 6.428-2.59 6.95-.48.523-.872 1.948-.872 3.167 0 1.219-.337 2.367-.75 2.55-.412.183-1.65 2.133-2.75 4.333-2.127 4.254-5.193 7.412-7.25 7.467-.687.018-1.25.532-1.25 1.142 0 .665-.943.871-2.362.515-2.232-.56-2.396-.276-2.965 5.142-1.165 11.103-2.831 20.745-3.747 21.684-.51.523-.926 1.985-.926 3.25s-.45 2.3-1 2.3-1.002.563-1.004 1.25c-.01 1.707-5.925 7.948-9.083 9.578-2.403 1.24-2.521 1.634-1.802 6 .424 2.57.797 7.413.83 10.762l.06 6.09 7.25 1.264c3.987.695 7.812 1.428 8.5 1.629.846.247 1.25 2.623 1.25 7.349 0 8.58 1.186 11.358 5.867 13.734 1.998 1.014 3.858 2.08 4.133 2.367 1.397 1.462 6.118 3.977 7.465 3.977.844 0 1.535.45 1.535 1s.437 1 .972 1c.835 0 9.344 3.59 14.028 5.917 1.626.808 20.008 6.532 26.5 8.252 2.2.582 4.9 1.41 6 1.84 1.1.429 4.25 1.545 7 2.48 7.119 2.423 26.107 11.077 27.5 12.534.275.288 1.767 1.33 3.316 2.317 4.967 3.163 13.52 11.027 18.184 16.72 2.558 3.122 5.511 11.507 5.505 15.631 0 1.755.397 3.44.89 3.744.491.304 1.12 2.243 1.398 4.309.64 4.772 2.472 12.163 3.657 14.756.502 1.1 1.136 3.35 1.409 5 1 6.052 2.747 13.046 3.681 14.737.528.955.96 2.846.96 4.203 0 1.356.417 3.5.928 4.763.51 1.264 1.672 5.897 2.582 10.297.91 4.4 2.067 8.782 2.572 9.737.505.955.918 2.465.918 3.357 0 2.139 2.986 15.357 4.045 17.906.457 1.1 1.031 3.575 1.276 5.5.65 5.112 2.806 15.187 3.744 17.5.446 1.1 1.018 3.575 1.272 5.5 1.014 7.702 2.889 17.61 3.69 19.5.976 2.3 2.071 12.262 2.31 21l.163 6-234.785.252-234.785.252zM661 591.183c0-1.75-.413-4.562-.918-6.25-.942-3.15-2.932-12.725-3.756-18.072-.254-1.65-.824-3.9-1.266-5-.442-1.1-1.586-5.6-2.542-10-.956-4.4-2.08-8.9-2.499-10-.696-1.829-4.043-14.988-5.978-23.5-1.894-8.328-3.337-13.618-4.16-15.236-.484-.955-.881-2.778-.881-4.05 0-1.273-.437-2.751-.972-3.286-.534-.534-1.275-4.238-1.646-8.231-.371-3.993-1.06-7.497-1.529-7.787-.469-.29-.853-1.58-.853-2.866 0-5.019-7.312-16.834-15.5-25.046-4.4-4.413-9.05-8.833-10.334-9.823-4.47-3.445-15.211-9.675-16.684-9.675-.815 0-1.482-.344-1.482-.764 0-.803-7.3-4.236-9.007-4.236-.546 0-.993-.419-.993-.93 0-.512-1.013-1.074-2.25-1.25-1.446-.206-2.364-1.124-2.57-2.57-.175-1.237.082-2.25.573-2.25.49 0 1.934-2.084 3.206-4.632 2.259-4.523 10.063-13.368 11.794-13.368.479 0 1.742-.804 2.808-1.787 1.067-.983 3.401-2.387 5.189-3.121l3.25-1.334v-9.639c0-10.794-.345-11.367-7.627-12.68-2.13-.385-4.323-1.009-4.873-1.386-.55-.378-3.7-1.503-7-2.5-3.3-.996-7.034-2.203-8.297-2.682-1.263-.479-3.176-.87-4.25-.87-1.074 0-1.953-.393-1.953-.873s-1.704-1.145-3.786-1.478c-2.083-.333-6.02-1.738-8.75-3.123-2.73-1.385-5.527-2.52-6.214-2.523-.688-.002-1.25-.454-1.25-1.004s.401-1 .892-1c.49 0 1.173-1.125 1.519-2.5.345-1.375 1.068-2.5 1.608-2.5s.98-1.125.98-2.5.45-2.5 1-2.5 1-.89 1-1.98c0-1.088.732-3.807 1.626-6.041 1.896-4.738 1.295-6.107-1.303-2.97C549.2 342.759 538 352.658 538 350.68c0-.505.413-1.346.918-1.869 1.497-1.548 9.082-16.687 9.082-18.126 0-.728.45-1.324 1-1.324s1-.494 1-1.099c0-1.068 2.246-6.648 4.071-10.117 1.139-2.163 2.969-9.203 3.583-13.784.259-1.925.845-4.4 1.304-5.5.9-2.156 2.9-16.09 4.162-29 .43-4.4 1.206-10.7 1.724-14 .517-3.3 1.48-10.275 2.14-15.5.66-5.225 1.575-10.4 2.035-11.5.459-1.1 1.094-4.025 1.411-6.5 1.015-7.92 3.049-17.812 3.821-18.584.412-.412.749-1.805.749-3.096 0-1.29.413-3.128.917-4.083.504-.955 2.855-5.674 5.223-10.487 2.369-4.812 4.656-8.75 5.083-8.75.428 0 .777-.512.777-1.138 0-1.547 10.186-11.81 11.75-11.839.687-.012 1.25-.374 1.25-.804 0-.429 1.237-1.311 2.75-1.96 1.512-.65 5.175-2.548 8.138-4.22 2.964-1.671 6.001-3.039 6.75-3.039.75 0 1.362-.399 1.362-.886 0-.488 1.237-1.13 2.75-1.428 4.757-.936 11.659-2.91 14.06-4.02 3.214-1.486 28.913-1.342 30.425.17.64.64 2.19 1.164 3.445 1.164 2.482 0 7.858 1.873 16.097 5.608 2.903 1.316 5.715 2.392 6.25 2.392.535 0 .973.398.973.884 0 .485.787 1.132 1.75 1.435 5.377 1.698 20.25 13.897 20.25 16.61 0 .51.574 1.523 1.275 2.25 2.498 2.589 10.65 20.506 11.318 24.876.374 2.445 1.02 4.895 1.436 5.445.416.55.998 3.025 1.292 5.5.295 2.475 1.281 8.775 2.192 14 2.297 13.19 5.297 33.543 7.515 51 1.996 15.7 4.374 27.923 6.079 31.237.49.955.896 2.53.9 3.5 0 .97.678 3.052 1.5 4.628.82 1.575 1.493 3.487 1.493 4.25 0 .762.45 1.385 1 1.385s1 .556 1 1.236c0 .68 1.193 3.717 2.65 6.75 1.458 3.033 3.82 7.99 5.25 11.014 1.43 3.025 3.037 5.813 3.57 6.196.535.382.69.977.346 1.321-.966.966-10.961-8.056-17.22-15.543l-2.903-3.474.714 4c1.308 7.327 4.608 16.034 6.633 17.5.38.275 1.007 1.515 1.394 2.755.527 1.687.246 2.407-1.115 2.858-1 .332-3.765 1.473-6.143 2.535-2.378 1.062-5.65 2.197-7.27 2.521-1.621.324-3.19.981-3.486 1.46-.296.48-1.643.871-2.993.871-1.35 0-3.236.413-4.19.918-1.836.97-14.907 5.154-21.87 7-6.095 1.616-6.46 2.455-5.706 13.082.642 9.048.735 9.323 3.5 10.367 1.561.59 2.839 1.423 2.839 1.852 0 .43.48.781 1.067.781 1.19 0 7.338 4.422 10.426 7.5 1.104 1.1 2.907 3.793 4.007 5.985 1.1 2.192 2.562 4.586 3.25 5.321.687.736 1.25 1.688 1.25 2.117 0 1.848 6.124 6.957 9.654 8.054 3.907 1.215 7.7 2.794 14.784 6.155 2.166 1.027 4.528 1.868 5.25 1.868.721 0 1.312.442 1.312.981 0 .54 1.125 1.263 2.5 1.609 1.375.345 2.5.964 2.5 1.377 0 1.107 9.873 6.033 12.092 6.033 1.05 0 1.908.348 1.908.773 0 .864 7.503 3.07 13.256 3.898 2.066.297 4.005.943 4.31 1.435.303.492 1.67.894 3.037.894s5.503.737 9.191 1.638c7.252 1.77 16.553 7.73 17.698 11.338.354 1.113 1.062 2.024 1.575 2.024.513 0 .933.675.933 1.5s.337 1.503.75 1.507c.981.008 4.25 5.77 4.25 7.49 0 .735.525 1.512 1.167 1.726 1.23.41 2.322 16.852 3.443 51.777.327 10.175.998 18.928 1.492 19.45.494.523.898 10.085.898 21.25v20.3H661zM5 577.92c0-2.442-.45-4.719-1-5.059-1.25-.772-1.347-24.73-.107-26.05.491-.522 1.161-6.125 1.49-12.45.646-12.47 2.665-27.397 3.867-28.59.412-.408.75-1.821.75-3.139 0-2.573 2.55-11.659 4.072-14.507.51-.955.928-2.381.928-3.17 0-.787.656-2.706 1.457-4.263.8-1.557 2.036-4.293 2.744-6.08.708-1.788 1.548-3.25 1.866-3.25.318 0 1.614-2.074 2.88-4.608 2.891-5.79 15.256-18.4 20.553-20.96 2.2-1.063 4.15-2.27 4.333-2.683.184-.412.748-.75 1.255-.75.507 0 3.254-1.125 6.104-2.5s5.773-2.5 6.495-2.5c.722 0 1.313-.444 1.313-.988 0-.543 1.81-1.278 4.022-1.631 2.212-.354 4.264-1.034 4.56-1.512.294-.478 1.416-.869 2.49-.869 1.076 0 2.736-.394 3.692-.875.955-.482 4.436-1.69 7.736-2.683 3.3-.994 6.45-2.08 7-2.415.55-.334 3.587-1.45 6.75-2.48 3.162-1.03 5.75-2.249 5.75-2.71 0-.46 1.012-.851 2.25-.869 1.237-.017 3.123-.692 4.191-1.5 1.068-.807 2.755-1.468 3.75-1.468.995 0 1.809-.45 1.809-1s.681-1 1.514-1c.832 0 2.294-.428 3.25-.951.955-.524 3.536-1.738 5.736-2.698 2.2-.96 4.225-2.007 4.5-2.326.275-.32 2.525-1.455 5-2.525 2.475-1.07 4.725-2.182 5-2.472.651-.688 10.984-5.683 13.25-6.406.962-.308 1.75-1.473 1.75-2.59 0-1.118.405-2.032.9-2.032.494 0 1.14-1.912 1.435-4.25.295-2.337 1.268-7.85 2.163-12.25 2.955-14.536 2.953-14.1.104-17.174-1.431-1.543-2.602-3.372-2.602-4.066 0-.693-.401-1.26-.892-1.26-.49 0-1.174-1.125-1.519-2.5s-1.069-2.5-1.608-2.5c-.54 0-.981-.675-.981-1.5s-.45-1.5-1-1.5-1-.718-1-1.595c0-.878-.636-2.79-1.413-4.25-2.691-5.057-5.67-12.315-6.256-15.25-.324-1.62-.981-3.189-1.46-3.485-.48-.296-.871-1.68-.871-3.075 0-1.395-.707-4.969-1.57-7.94-1.426-4.902-1.836-5.405-4.412-5.405-3.117 0-7.682-4.493-8.46-8.327-1.864-9.188-2.654-16.924-2.841-27.827-.233-13.605-.184-13.751 5.893-17.42 1.576-.951 1.63-1.432.474-4.223-1.837-4.434-2.13-48.55-.334-50.35.687-.689 1.25-2.021 1.25-2.96 0-6.078 13.692-22.87 22.75-27.9 2.337-1.299 4.25-2.68 4.25-3.069 0-.389 1.125-.99 2.5-1.334 1.375-.346 2.5-1.07 2.5-1.609 0-.54.675-.98 1.5-.98s1.5-.42 1.5-.933c0-.513.82-1.193 1.824-1.512 1.003-.318 2.704-1.361 3.78-2.317 1.076-.956 3.517-2.616 5.426-3.689 1.908-1.072 4.37-2.796 5.47-3.831 1.1-1.035 2.787-2.311 3.75-2.836 1.55-.844 1.75-.434 1.75 3.582 0 2.494.23 4.535.512 4.535.281 0 5.271-4.76 11.089-10.577 5.817-5.818 10.856-10.299 11.198-9.957.34.34.733 3.522.871 7.07.138 3.546.828 7.465 1.534 8.706l1.282 2.258.323-2.75c.372-3.16 2.21-3.51 6.555-1.244 1.576.822 3.488 1.494 4.25 1.494s1.386.351 1.386.78c0 .429 2.25 1.653 5 2.72 2.75 1.067 5 2.19 5 2.496 0 .306 2.02 1.444 4.49 2.53 2.47 1.086 4.495 2.312 4.5 2.724.01.413.471.75 1.034.75 1.27 0 14.351 8.142 14.81 9.217.183.43.89.783 1.573.783 2.202 0 13.336 11.661 15.276 16 .37.825.933 1.725 1.252 2 1.223 1.052 4.075 10.646 4.07 13.691 0 1.755.504 3.506 1.126 3.89 1.111.687.81 16.487-.732 38.42l-.598 8.5 3.6 1.907c1.98 1.049 3.599 2.511 3.599 3.25 0 .738.399 1.342.886 1.342 1.606 0 2.073 8.311 1.15 20.5-.498 6.6-1.21 13.45-1.58 15.223-.807 3.853-4.94 8.277-7.732 8.277-2.467 0-4.65 2.716-4.692 5.836-.044 3.209-3.356 15.587-4.281 15.998-.413.183-.751 1.334-.751 2.558 0 1.224-.66 3.1-1.468 4.167-.808 1.068-1.483 2.467-1.5 3.109-.081 2.981-10.37 18.649-17.775 27.068-1.588 1.805-1.875 3.248-1.494 7.5.26 2.895.869 5.692 1.354 6.214.486.523.883 2.515.883 4.428 0 1.913.742 6.666 1.648 10.563l1.649 7.086 14.101 6.957c7.756 3.826 15.603 7.825 17.438 8.886l3.336 1.929-3.836 1.416c-2.11.78-4.624 1.665-5.586 1.968-.963.303-1.75.948-1.75 1.434s-1.125.883-2.5.883-2.5.45-2.5 1-.563 1.01-1.25 1.023c-.688.012-3.95 1.352-7.25 2.977-3.3 1.626-6.563 2.965-7.25 2.978-.688.012-1.25.362-1.25.778 0 .416-1.463 1.377-3.25 2.136-1.788.76-6.052 3.12-9.476 5.245-3.424 2.125-6.516 3.863-6.873 3.863-.707 0-11.572 7.66-15.095 10.643a249.28 249.28 0 0 1-5 4.084c-5.125 4.066-8.783 7.716-13.304 13.273-2.461 3.025-4.706 5.725-4.988 6-.283.275-1.005 1.4-1.604 2.5-.6 1.1-2.268 4.12-3.708 6.71-3.267 5.878-7.702 18.575-7.702 22.05 0 1.436-.441 3.77-.98 5.188-.54 1.419-1.48 5.385-2.091 8.815-1.212 6.805-2.007 10.605-4.446 21.237-.884 3.85-2 8.8-2.483 11-.482 2.2-1.603 7.15-2.49 11-.888 3.85-1.977 9.025-2.42 11.5-1.595 8.915 8.266 8-86.197 8H5Z" transform="translate(-3.011 -121.088)"/></svg>